 <svg
        xmlns="http://www.w3.org/2000/svg"
        width="2043"
        height="1244"
        fill="none"
        viewBox="0 0 2043 1244"
        class="blur-blob blur-three-colors animate-text"
        style="/* display: none; */"
      >
        <g
          clip-path="url(#clip0_16_9)"
          filter="url(#filter0_f_16_9)"
          opacity="0.4"
        >
          <ellipse
            fill="#00068E"
            rx="412.466"
            ry="210.91"
            transform="matrix(.9831 .18307 -.47834 .87818 835.547 449.551)"
          ></ellipse>
          <path
            fill="#EB0078"
            d="M1611.73 490.127c-37.93 81.285-227.84 129.685-424.18 108.104C991.203 576.65 862.776 493.26 900.699 411.974c37.922-81.285 186.681-8.913 383.031 12.669 196.34 21.581 365.92-15.802 328 65.484z"
          ></path>
          <path
            fill="#FF3E3E"
            d="M1230.81 367.417c49.74-74.641 167.54-114.471 263.13-88.964 95.58 25.507 132.74 106.693 83 181.333-49.75 74.641-101.66 3.153-197.24-22.354-95.58-25.507-198.64 4.625-148.89-70.015z"
          ></path>
          <path
            fill="#A400BE"
            d="M737.907 345.38c50.76-76.977 247.002-106.619 438.323-66.207 191.31 40.413 305.25 135.576 254.49 212.554-50.76 76.977-186.65-9.223-377.97-49.635-191.315-40.413-365.604-19.734-314.843-96.712z"
          ></path>
          <ellipse
            fill="#6100FF"
            rx="322.507"
            ry="160.301"
            transform="matrix(.9831 .18307 -.47834 .87818 903.509 439.896)"
          ></ellipse>
        </g>
        <defs>
          <filter
            id="filter0_f_16_9"
            width="1690.52"
            height="1400.266"
            x="176.55"
            y="110.101"
            color-interpolation-filters="sRGB"
            filterUnits="userSpaceOnUse"
          >
            <feFlood flood-opacity="0" result="BackgroundImageFix"></feFlood>
            <feBlend
              in="SourceGraphic"
              in2="BackgroundImageFix"
              result="shape"
            ></feBlend>
            <feGaussianBlur
              result="effect1_foregroundBlur_16_9"
              stdDeviation="125"
            ></feGaussianBlur>
          </filter>
          <clipPath id="clip0_16_9">
            <path fill="#fff" d="M0 0H2043V844H0z"></path>
          </clipPath>
        </defs></svg>